<svg width="80" height="80" viewBox="0 0 80 80" fill="none" xmlns="http://www.w3.org/2000/svg">
<path d="M32.9172 48.031C31.1495 49.3541 29.6202 51.1064 27.6064 52.0018C23.8556 53.671 19.4664 51.8172 16.0787 50.091C12.8848 48.4648 10.6741 46.3018 10.3741 42.4802C10.0248 38.031 11.6172 34.5664 15.9156 32.8725C18.1925 31.9756 17.2002 28.2541 14.8925 29.1649C10.8602 30.7525 7.74639 33.1033 6.79562 37.5372C5.94639 41.5064 6.40485 46.4679 9.05716 49.6772C12.0187 53.2633 17.8879 55.7402 22.391 56.3587C27.9695 57.1218 30.7187 54.4541 34.8572 51.351C36.8141 49.8833 34.9002 46.5448 32.9172 48.031Z" fill="#203F30"/>
<path d="M18.285 30.743C18.3757 20.4907 18.2727 10.343 30.285 6.98298C39.7403 4.33683 49.8434 8.91375 52.5988 18.7953C53.2619 21.1768 56.9742 20.1645 56.3065 17.7737C53.165 6.50144 42.5557 0.727595 31.4065 2.79683C26.188 3.76606 21.4434 6.34452 18.2403 10.6261C13.5111 16.9461 14.505 23.3291 14.4403 30.743C14.4173 33.2184 18.2619 33.2199 18.285 30.743Z" fill="#203F30"/>
<path d="M52.9548 18.931L52.9948 19.7003C53.0379 20.5572 53.5625 21.3126 54.4056 21.5541C57.3979 22.4095 60.3902 24.2172 62.944 25.9849C67.7902 29.3387 69.6117 32.9556 69.4163 38.9264C69.2179 44.9664 66.8517 49.0464 61.664 52.1341C54.9902 56.108 48.664 55.811 43.7256 49.1956C42.2609 47.2341 38.9194 49.1495 40.4025 51.1356C44.2917 56.3433 48.6948 60.2218 55.5994 58.8941C61.6179 57.7372 69.1748 53.2572 71.7609 47.5264C74.0733 42.4064 74.4071 33.7126 71.5348 28.7141C70.0271 26.0926 67.3333 24.2803 64.884 22.6633C64.0933 22.1418 56.7379 17.7203 56.8009 18.931C56.6748 16.4695 52.8271 16.4541 52.9548 18.931ZM35.4086 25.8572C35.8179 41.5033 35.6425 57.1387 34.8856 72.771C34.7656 75.2464 38.6117 75.2387 38.7317 72.771C39.4886 57.1387 39.664 41.5033 39.2548 25.8572C39.1902 23.388 35.344 23.3772 35.4086 25.8572Z" fill="#203F30"/>
<path d="M65.0082 73.1444C48.2789 73.7598 31.4051 71.9998 14.7543 73.7598C12.3189 74.0167 12.2928 77.8675 14.7543 77.6059C31.4036 75.8459 48.2789 77.6059 65.0082 76.9905C67.4759 76.8998 67.4866 73.0536 65.0082 73.1444ZM53.7313 27.8505C49.7005 28.4813 46.6728 31.8244 44.0389 34.6936C41.0974 37.8952 38.562 41.4244 36.3851 45.1844C35.1436 47.3305 38.4666 49.269 39.7082 47.1259C41.5389 43.9598 43.6066 40.9675 46.0297 38.2228C48.3282 35.6167 51.1682 32.1213 54.7528 31.5613C57.1913 31.1767 56.1559 27.4705 53.7313 27.8505Z" fill="#203F30"/>
<path d="M20.3154 34.1336C22.3538 36.4367 25.5154 37.3659 28.0446 39.0321C31.0446 41.0074 33.4492 43.5121 34.9477 46.7967C35.9738 49.0459 39.2892 47.0936 38.2692 44.8551C36.8277 41.6967 34.5861 39.1536 31.8477 37.0444C29.1969 35.0044 25.2215 33.8844 23.0338 31.4136C21.3892 29.5582 18.6784 32.2859 20.3154 34.1336Z" fill="#203F30"/>
</svg>
