<svg width="80" height="80" viewBox="0 0 80 80" fill="none" xmlns="http://www.w3.org/2000/svg">
<path d="M11.5224 41.8861C11.2009 49.5753 12.8685 57.0107 12.2378 64.7861C12.0239 67.4291 10.3178 73.4553 12.3301 75.6399C14.5993 78.1015 18.9455 76.6645 21.7485 76.6353C28.7578 76.563 35.6978 77.4938 42.7208 77.2153C49.807 76.9338 56.8962 76.5476 63.9793 76.1661C66.2993 76.0415 67.9839 76.4538 69.2208 74.4353C69.6978 73.6599 69.2378 73.1061 69.2993 72.3184C69.5408 69.2122 68.8993 65.7907 69.0439 62.5907C69.3759 55.5034 68.9177 48.4012 67.6778 41.4153C67.247 38.983 63.5393 40.0138 63.9685 42.4384C65.6455 51.9415 65.147 61.2722 65.0839 70.8368C66.2039 73.2738 66.1055 73.9384 64.7855 72.8307C63.7639 71.9661 62.547 71.843 61.1347 72.4615C59.2608 72.4061 57.3224 72.6492 55.447 72.743C50.3085 72.9968 45.1593 73.3676 40.0162 73.463C35.3193 73.5507 30.6578 73.1138 25.9701 72.9107C23.6624 72.8122 21.2409 72.6261 18.9393 72.8584C16.0255 73.1538 16.3885 73.7938 15.5547 72.0168C14.0885 68.8938 16.5132 61.0891 16.5239 57.5676C16.5393 52.2891 15.1485 47.1599 15.3685 41.8861C15.4716 39.4092 11.6255 39.4153 11.5224 41.8861Z" fill="#203F30"/>
<path d="M5.65452 41.2539C8.21452 38.5047 11.5761 36.617 14.193 33.8985C16.9684 31.0154 18.9761 26.7293 22.1161 24.3139C24.5284 22.4585 27.2991 21.4554 29.5084 19.2462C31.6838 17.0708 33.2853 14.3831 35.1022 11.9231C42.713 1.62773 51.4299 19.6647 56.5222 24.88C58.6607 27.0693 61.2545 28.6847 63.8361 30.2893C66.0976 31.697 68.5637 32.9847 70.5284 34.8123C74.3899 38.4016 71.4699 38.6847 68.0961 36.1523C65.4745 34.1847 63.2745 30.7539 60.6007 28.5754C57.0361 25.6708 53.5699 22.7077 50.3268 19.44C47.9068 16.9985 44.0961 10.8493 39.9484 11.6247C37.1022 12.1585 35.5391 15.68 33.6684 17.3631C31.2299 19.557 28.9361 20.8954 26.9607 23.5893C24.5668 26.8477 11.9853 44.2831 7.71144 38.62C6.2376 36.6662 2.89606 38.5816 4.38837 40.5585C9.78529 47.7093 12.3484 43.4893 18.9684 38.4708C22.4068 35.8647 25.2484 33.237 27.7407 29.7185C30.5991 25.6862 34.6438 19.857 39.1868 17.28C43.3791 14.9047 47.6007 22.2723 50.5791 25.0554C55.6407 29.7831 61.0591 33.5662 65.3791 39.0093C67.8099 42.0677 74.4591 47.6247 77.1791 41.0477C79.8822 34.5047 68.7807 28.8677 64.8499 26.3985C59.4499 23.0062 56.4499 18.1462 52.4361 13.4C50.0007 10.52 45.5853 3.91388 41.7284 2.90465C34.7145 1.0708 29.4284 14.4123 25.3284 17.7385C22.0484 20.4 18.7314 21.7216 16.1514 25.1693C12.1853 30.477 7.34068 33.8016 2.93606 38.5339C1.24991 40.3447 3.96375 43.0708 5.65452 41.2539Z" fill="#203F30"/>
<path d="M22.2507 72.7965C21.1353 67.7411 22.7491 61.2688 22.4091 55.9611C22.243 53.3365 21.3845 48.4719 22.863 46.1519C22.7568 44.0165 24.1276 43.8165 26.9768 45.5488C27.8891 45.6765 28.806 45.7796 29.7245 45.8565C31.2153 45.9888 32.6999 45.9427 34.1784 45.718C34.243 47.2196 34.2399 48.7211 34.163 50.2227C33.9507 52.838 33.2845 55.3996 32.9045 57.9903C32.1045 63.4611 32.4107 68.7627 33.4768 74.1627C33.9568 76.5888 37.6645 75.5626 37.1845 73.1396C35.9876 67.0719 36.1737 61.6719 37.206 55.5965C37.7353 52.4811 38.4168 49.3134 37.8614 46.1427C36.7414 39.7457 30.5137 42.0011 25.2491 41.4565C19.6491 40.878 18.7614 44.1488 18.3845 49.7119C18.0999 53.8842 19.0214 58.015 18.8922 62.1811C18.766 66.2826 17.646 69.755 18.5414 73.8196C19.0737 76.235 22.783 75.2134 22.2491 72.7965H22.2507ZM47.4337 58.9196C47.1221 55.5263 46.9599 52.121 46.9476 48.7134C46.9462 47.5111 46.9647 46.3089 47.003 45.1073C46.9845 44.3288 47.0245 44.3073 47.1199 45.0396C47.043 45.6011 47.2907 45.7842 47.8614 45.5873L49.1476 45.618L52.363 45.695C54.0707 45.735 55.8014 45.8642 57.5061 45.8165C58.0522 45.8011 58.9676 46.2211 58.4953 45.6088C58.7614 45.9534 58.5076 47.6488 58.5107 48.1088L58.5445 53.7334C58.5553 55.3688 58.9753 57.6688 58.5384 59.2396L59.8814 57.895C57.7045 58.3965 54.6045 57.7596 52.3461 57.695C49.6537 57.6196 46.9599 57.5534 44.2691 57.4027C41.7953 57.2642 41.803 61.1103 44.2691 61.2488C47.3384 61.4211 50.4107 61.4873 53.483 61.5734C55.8307 61.6396 58.606 62.1334 60.903 61.6042C61.5491 61.4565 62.0722 60.8857 62.246 60.2611C62.843 58.1257 62.3999 55.3242 62.3876 53.1073C62.3722 50.5165 62.803 47.415 62.2845 44.8873C61.4768 40.955 56.7153 41.9519 53.6491 41.8796C51.0707 41.818 48.2153 41.375 45.6768 41.7303C44.4937 41.8965 43.7199 42.4165 43.303 43.5503C42.606 45.4503 43.0814 48.558 43.1168 50.518C43.1676 53.3242 43.3384 56.1242 43.5876 58.9196C43.806 61.3657 47.6537 61.3888 47.4337 58.9196Z" fill="#203F30"/>
</svg>
