<svg width="80" height="80" viewBox="0 0 80 80" fill="none" xmlns="http://www.w3.org/2000/svg">
<path d="M48.8732 2.51346C39.1271 5.52576 27.1409 3.88269 17.0056 3.93192C14.5317 3.94269 14.5271 7.78884 17.0056 7.77807C27.4963 7.72884 39.7625 9.35499 49.8963 6.22115C52.2532 5.49346 51.2486 1.77961 48.8732 2.51346Z" fill="#203F30"/>
<path d="M16.364 3.90503L15.1332 3.9358C14.1578 3.96041 13.124 4.79887 13.2101 5.85887C14.2655 18.7558 13.6347 31.6558 14.0224 44.5712C14.1917 50.1666 14.8163 55.7112 15.1517 61.2943C15.4286 65.925 13.8978 71.1635 14.6947 75.562C14.804 76.1666 15.4378 76.7927 16.0378 76.905C22.7486 78.182 30.6778 77.265 37.507 77.2512C46.3378 77.2327 55.1655 77.0604 63.9917 76.782C64.7886 76.7558 65.6778 76.2066 65.847 75.3696C67.6732 66.2635 65.0393 58.5204 65.5624 49.4712C66.1224 39.7604 66.9516 30.3327 66.767 20.5743C66.7209 18.102 62.8747 18.0943 62.9209 20.5743C63.0501 27.3589 63.1393 34.1327 62.5717 40.8989C62.0701 46.8558 61.2209 52.5296 62.0793 58.505C62.664 62.5896 65.5824 70.2743 61.0501 73.0281C59.3378 74.0696 54.4347 73.2035 52.2224 73.2466C44.8655 73.3896 37.507 73.4358 30.1486 73.385C28.3563 73.3743 21.044 74.3666 19.8486 73.2558C18.0793 71.6158 19.0286 70.1219 19.1317 67.7804C19.404 61.5266 18.3717 55.2696 18.0486 49.0343C17.3024 34.6435 18.2332 20.2373 17.0563 5.85887L15.1332 7.78195L16.364 7.75118C18.8332 7.68964 18.844 3.84349 16.364 3.90503Z" fill="#203F30"/>
<path d="M48.6978 5.78303C49.9747 8.71072 52.667 10.5138 54.9301 12.643C57.7224 15.2676 60.3039 18.1046 62.8809 20.9384C64.5516 22.7723 67.2655 20.0461 65.6009 18.2184C63.2685 15.6553 60.9347 13.0876 58.4409 10.6784C56.2485 8.55533 53.267 6.70764 52.0193 3.84149C51.0316 1.57841 47.7193 3.5338 48.6978 5.78303Z" fill="#203F30"/>
<path d="M46.8156 6.79967C47.6356 9.82275 48.2048 12.8735 48.3802 16.0058C48.4694 17.6043 47.9371 19.9904 49.1233 21.3135C50.3787 22.7089 52.8464 22.1212 54.4971 22.0704L63.2848 21.7997C65.7541 21.7227 65.7648 17.8766 63.2848 17.9535L56.6941 18.1566C55.7217 18.1874 54.3479 18.0489 53.3987 18.2581C52.5033 17.9197 52.1371 18.0981 52.2956 18.7951C52.2864 19.6627 52.2864 19.4643 52.2956 18.1997C52.2171 14.0021 51.6219 9.83016 50.5233 5.77813C49.8756 3.39198 46.1633 4.40428 46.8156 6.79967ZM59.2464 29.1243C46.9079 30.5627 34.0125 29.9074 21.6202 29.5566C19.1433 29.4874 19.1464 33.3335 21.6202 33.4027C34.0156 33.7535 46.9079 34.4089 59.2448 32.972C61.6756 32.6874 61.7033 28.8381 59.2448 29.1258L59.2464 29.1243ZM59.5725 43.3135C47.0925 43.1304 34.6141 43.0458 22.1341 43.0581C19.6587 43.0612 19.6541 46.9074 22.1341 46.9043C34.6141 46.892 47.0941 46.9766 59.5725 47.1597C62.0494 47.195 62.0494 43.3489 59.5725 43.3135ZM59.8202 56.9904C53.9725 57.5012 48.4648 56.6027 42.6556 56.3781C35.7479 56.1135 28.7894 56.3412 21.8771 56.332C19.4002 56.3289 19.3971 60.1751 21.8771 60.1781C28.7833 60.1874 35.7541 59.9412 42.6556 60.2243C48.4464 60.4627 53.9941 61.3474 59.8202 60.8366C62.2664 60.6227 62.2894 56.7751 59.8202 56.9904Z" fill="#203F30"/>
</svg>
