<svg width="80" height="80" viewBox="0 0 80 80" fill="none" xmlns="http://www.w3.org/2000/svg">
<path d="M5.15952 33.7365C10.0826 30.6058 13.7164 25.0565 18.2211 21.2258C23.6303 16.6258 29.1687 12.3073 33.9026 6.98421H31.1826C35.9087 11.3688 39.0811 16.9688 43.278 21.8165C47.6318 26.8427 53.1318 30.8288 56.8226 36.4088C58.1811 38.4642 61.5149 36.5396 60.1426 34.4673C56.6949 29.2534 51.8411 25.4534 47.6211 20.9011C42.7041 15.5981 39.2211 9.20114 33.9026 4.26421C33.1749 3.58883 31.8949 3.46421 31.1826 4.26421C27.0057 8.96114 22.2364 12.8919 17.418 16.9027C12.618 20.9011 8.38567 27.1319 3.21798 30.4165C1.1349 31.7411 3.0626 35.0704 5.15952 33.7365Z" fill="#203F30"/>
<path d="M50.4438 21.4388V10.0311C50.4438 7.55574 46.5977 7.55112 46.5977 10.0311V21.4404C46.5977 23.9157 50.4438 23.9188 50.4438 21.4388Z" fill="#203F30"/>
<path d="M49.0469 7.36035C46.8992 6.69266 44.6869 6.64804 42.4976 7.15112C40.0869 7.70496 41.1069 11.4142 43.5207 10.8588C45.0515 10.508 46.5299 10.6034 48.0253 11.0696C50.3946 11.8065 51.4069 8.0942 49.0484 7.36189L49.0469 7.36035Z" fill="#203F30"/>
<path d="M40.9342 9.13242C41.0851 11.5221 41.1329 13.9171 41.0773 16.3109C41.0188 18.7878 44.865 18.7863 44.9235 16.3109C44.979 13.9171 44.9313 11.5221 44.7804 9.13242C44.6265 6.67396 40.7788 6.65704 40.9342 9.13242ZM9.75422 28.1109C9.92961 35.1417 10.0835 42.174 10.2065 49.2078C10.2604 52.2647 8.83422 59.254 11.0404 61.7432C13.225 64.2078 19.5588 63.3786 22.3281 63.3509C28.9619 63.2832 35.6034 62.9709 42.2358 62.7786C44.705 62.7063 44.7158 58.8601 42.2358 58.9324L28.3435 59.3355C24.6311 59.4432 16.5635 61.0847 14.1804 57.1201C12.725 54.697 14.0127 46.8493 13.9558 43.9324C13.8514 38.6583 13.7324 33.3844 13.5988 28.1109C13.5373 25.6401 9.69268 25.6309 9.75422 28.1109ZM41.1542 27.6047C38.2496 26.3186 35.2219 26.7247 32.0958 26.7847L19.6758 27.0247C17.205 27.074 17.1958 30.9201 19.6758 30.8709L28.9911 30.6909C31.8358 30.637 36.565 29.7524 39.2142 30.9247C41.4573 31.917 43.4158 28.6047 41.1542 27.6047Z" fill="#203F30"/>
<path d="M17.0287 28.1895C16.0611 30.2064 16.4964 31.5171 16.8718 33.6402C17.2826 35.9664 16.9411 38.571 16.8164 40.9248C16.6857 43.3987 20.5318 43.391 20.6626 40.9248C20.758 39.1325 20.8334 37.3371 20.8441 35.5433C20.8487 34.711 20.8472 33.8925 20.7011 33.0695C20.5395 32.1602 19.9041 31.0602 20.3487 30.131C21.4134 27.9079 18.098 25.9556 17.0287 28.1895Z" fill="#203F30"/>
<path d="M18.9054 43.1281C25.6988 42.9611 32.496 43.0227 39.2854 43.3127C41.7608 43.4173 41.7561 39.5712 39.2854 39.4666C32.496 39.1765 25.6988 39.1149 18.9054 39.2819C16.4346 39.3435 16.4254 43.1896 18.9054 43.1281Z" fill="#203F30"/>
<path d="M41.4609 41.1815C41.5193 39.1723 41.1378 37.2292 41.5378 35.2384C41.8824 33.5215 42.3778 31.94 42.2039 30.1615C41.9655 27.7215 38.1163 27.6969 38.3578 30.1615C38.547 32.103 37.7916 33.8492 37.5639 35.7507C37.3486 37.563 37.667 39.363 37.6132 41.1815C37.5424 43.6584 41.3886 43.6554 41.4593 41.1815H41.4609ZM54.6839 64.5369C62.3332 63.0292 66.4224 58.8261 65.7886 50.7292C65.1886 43.063 60.5993 38.3569 52.9886 37.9307C44.7332 37.4692 39.8563 43.8077 39.7424 51.7046C39.6193 60.1815 44.5332 64.6077 52.747 64.4969C55.2209 64.463 55.227 60.6169 52.747 60.6507C49.7593 60.6907 46.7055 60.7123 44.8993 57.82C43.6624 55.8415 43.4516 53.1707 43.5993 50.9123C44.0301 44.3277 48.327 40.8723 54.7455 41.9538C59.9301 42.8277 61.9609 47.2046 62.0147 52.143C62.0763 57.8938 58.7563 59.8246 53.6609 60.8277C51.2347 61.3046 52.2609 65.0138 54.6839 64.5369Z" fill="#203F30"/>
<path d="M49.7999 49.6351C50.5291 48.132 53.4491 47.5382 54.7984 48.4966C56.0184 49.3628 56.1091 51.5982 55.6399 52.852C54.9276 54.7597 52.8645 54.8212 51.0784 54.4874C49.9676 54.2812 47.0415 51.8428 48.6076 50.6274C50.5615 49.1135 47.823 46.4089 45.8891 47.9089C42.7615 50.3335 45.0476 55.6274 47.823 57.3289C51.2107 59.4059 56.6507 58.9335 58.7199 55.3151C60.4845 52.2335 59.9522 47.7551 57.1476 45.452C54.1784 43.012 48.1615 44.2305 46.4784 47.6951C45.4015 49.9105 48.7168 51.8643 49.7999 49.6351ZM48.6122 29.3874L48.5753 37.592C48.563 40.0674 52.4091 40.0705 52.4215 37.592L52.4584 29.3874C52.4691 26.912 48.623 26.9105 48.6122 29.3874ZM69.9415 69.4874C69.4291 69.6366 71.583 71.6412 71.9045 71.9228C72.5403 72.4795 73.2004 73.0077 73.883 73.5059C74.4568 72.3366 74.403 71.9705 73.723 72.4058C73.223 72.2166 73.403 72.572 72.9815 71.9366C72.6891 71.4982 72.4738 71.0135 72.1891 70.5674C71.5382 69.5536 70.7432 68.6399 69.8291 67.8551C67.9615 66.2474 65.2291 68.9566 67.1091 70.5751C67.981 71.3229 68.7161 72.2167 69.2815 73.2166C69.8138 74.1351 70.3691 75.0935 71.2876 75.6828C73.0461 76.8135 76.1138 76.3443 77.2476 74.472C78.6999 72.072 76.1322 70.5182 74.623 69.2028C72.8999 67.6982 71.623 64.9935 68.9184 65.7797C66.5461 66.4689 67.5553 70.1797 69.9415 69.4874Z" fill="#203F30"/>
<path d="M60.4253 61.8311C61.8007 65.2049 64.5622 67.1434 67.6099 68.928C69.7515 70.1819 71.6899 66.8588 69.553 65.608C67.5299 64.4234 65.0699 63.1049 64.1345 60.808C63.7438 59.8495 62.853 59.1619 61.7684 59.4649C60.8607 59.7188 60.0299 60.8603 60.4253 61.8311Z" fill="#203F30"/>
</svg>
